<?xml version="1.0" encoding="UTF-8" standalone="no"?>
<!DOCTYPE svg PUBLIC "-//W3C//DTD SVG 1.0//EN" "http://www.w3.org/TR/2001/PR-SVG-20010719/DTD/svg10.dtd">
<svg width="56cm" height="42cm" viewBox="12 74 1119 824" xmlns="http://www.w3.org/2000/svg" xmlns:xlink="http://www.w3.org/1999/xlink">
  <g>
    <rect style="fill: #ffffff" x="242" y="397" width="81.9" height="36"/>
    <rect style="fill: none; fill-opacity:0; stroke-width: 2; stroke: #000000" x="242" y="397" width="81.9" height="36"/>
    <text font-size="12.7998" style="fill: #000000;text-anchor:middle;font-family:monospace;font-style:normal;font-weight:normal" x="282.95" y="419">Product</text>
  </g>
  <g>
    <ellipse style="fill: #ffffff" cx="73.4" cy="145" rx="35.4" ry="18"/>
    <ellipse style="fill: none; fill-opacity:0; stroke-width: 2; stroke: #000000" cx="73.4" cy="145" rx="35.4" ry="18"/>
    <text font-size="12.7998" style="fill: #000000;text-anchor:middle;font-family:monospace;font-style:normal;font-weight:normal" x="73.4" y="149">Uuid</text>
    <line style="fill: none; fill-opacity:0; stroke-width: 2; stroke: #000000" x1="58" y1="153" x2="88.8" y2="153"/>
  </g>
  <g>
    <ellipse style="fill: #ffffff" cx="72.25" cy="196" rx="39.25" ry="18"/>
    <ellipse style="fill: none; fill-opacity:0; stroke-width: 2; stroke: #000000" cx="72.25" cy="196" rx="39.25" ry="18"/>
    <text font-size="12.7998" style="fill: #000000;text-anchor:middle;font-family:monospace;font-style:normal;font-weight:normal" x="72.25" y="200">Group</text>
  </g>
  <g>
    <ellipse style="fill: #ffffff" cx="70.4" cy="245" rx="35.4" ry="18"/>
    <ellipse style="fill: none; fill-opacity:0; stroke-width: 2; stroke: #000000" cx="70.4" cy="245" rx="35.4" ry="18"/>
    <text font-size="12.7998" style="fill: #000000;text-anchor:middle;font-family:monospace;font-style:normal;font-weight:normal" x="70.4" y="249">Name</text>
  </g>
  <g>
    <ellipse style="fill: #ffffff" cx="83.35" cy="342" rx="62.35" ry="18"/>
    <ellipse style="fill: none; fill-opacity:0; stroke-width: 2; stroke: #000000" cx="83.35" cy="342" rx="62.35" ry="18"/>
    <text font-size="12.7998" style="fill: #000000;text-anchor:middle;font-family:monospace;font-style:normal;font-weight:normal" x="83.35" y="346">Description</text>
  </g>
  <g>
    <ellipse style="fill: #ffffff" cx="73.1" cy="295" rx="43.1" ry="18"/>
    <ellipse style="fill: none; fill-opacity:0; stroke-width: 2; stroke: #000000" cx="73.1" cy="295" rx="43.1" ry="18"/>
    <text font-size="12.7998" style="fill: #000000;text-anchor:middle;font-family:monospace;font-style:normal;font-weight:normal" x="73.1" y="299">Active</text>
  </g>
  <g>
    <ellipse style="fill: #ffffff" cx="79.8" cy="396" rx="50.8" ry="18"/>
    <ellipse style="fill: none; fill-opacity:0; stroke-width: 2; stroke: #000000" cx="79.8" cy="396" rx="50.8" ry="18"/>
    <text font-size="12.7998" style="fill: #000000;text-anchor:middle;font-family:monospace;font-style:normal;font-weight:normal" x="79.8" y="400">Archived</text>
  </g>
  <g>
    <ellipse style="fill: #ffffff" cx="77.65" cy="448" rx="54.65" ry="18"/>
    <ellipse style="fill: none; fill-opacity:0; stroke-width: 2; stroke: #000000" cx="77.65" cy="448" rx="54.65" ry="18"/>
    <text font-size="12.7998" style="fill: #000000;text-anchor:middle;font-family:monospace;font-style:normal;font-weight:normal" x="77.65" y="452">Availible</text>
  </g>
  <g>
    <ellipse style="fill: #ffffff" cx="71.55" cy="498" rx="31.55" ry="18"/>
    <ellipse style="fill: none; fill-opacity:0; stroke-width: 2; stroke: #000000" cx="71.55" cy="498" rx="31.55" ry="18"/>
    <text font-size="12.7998" style="fill: #000000;text-anchor:middle;font-family:monospace;font-style:normal;font-weight:normal" x="71.55" y="502">EAN</text>
  </g>
  <g>
    <ellipse style="fill: #ffffff" cx="68.1" cy="547" rx="43.1" ry="18"/>
    <ellipse style="fill: none; fill-opacity:0; stroke-width: 2; stroke: #000000" cx="68.1" cy="547" rx="43.1" ry="18"/>
    <text font-size="12.7998" style="fill: #000000;text-anchor:middle;font-family:monospace;font-style:normal;font-weight:normal" x="68.1" y="551">Prices</text>
  </g>
  <g>
    <ellipse style="fill: #ffffff" cx="72.5" cy="597" rx="58.5" ry="18"/>
    <ellipse style="fill: none; fill-opacity:0; stroke-width: 2; stroke: #000000" cx="72.5" cy="597" rx="58.5" ry="18"/>
    <text font-size="12.7998" style="fill: #000000;text-anchor:middle;font-family:monospace;font-style:normal;font-weight:normal" x="72.5" y="601">Properties</text>
  </g>
  <g>
    <ellipse style="fill: #ffffff" cx="64.7" cy="647.2" rx="50.8" ry="18"/>
    <ellipse style="fill: none; fill-opacity:0; stroke-width: 2; stroke: #000000" cx="64.7" cy="647.2" rx="50.8" ry="18"/>
    <text font-size="12.7998" style="fill: #000000;text-anchor:middle;font-family:monospace;font-style:normal;font-weight:normal" x="64.7" y="651.2">Metadata</text>
  </g>
  <line style="fill: none; fill-opacity:0; stroke-width: 2; stroke: #000000" x1="86.9573" y1="162.468" x2="268.203" y2="395.999"/>
  <line style="fill: none; fill-opacity:0; stroke-width: 2; stroke: #000000" x1="88.7752" y1="213.176" x2="264.676" y2="396.006"/>
  <line style="fill: none; fill-opacity:0; stroke-width: 2; stroke: #000000" x1="90.1774" y1="260.818" x2="259.235" y2="396.033"/>
  <line style="fill: none; fill-opacity:0; stroke-width: 2; stroke: #000000" x1="99.3889" y1="310.033" x2="249.725" y2="396.001"/>
  <line style="fill: none; fill-opacity:0; stroke-width: 2; stroke: #000000" x1="122.925" y1="356.474" x2="241.017" y2="399.664"/>
  <line style="fill: none; fill-opacity:0; stroke-width: 2; stroke: #000000" x1="129.906" y1="400.686" x2="241.04" y2="411.08"/>
  <line style="fill: none; fill-opacity:0; stroke-width: 2; stroke: #000000" x1="127.753" y1="439.946" x2="241.023" y2="421.739"/>
  <line style="fill: none; fill-opacity:0; stroke-width: 2; stroke: #000000" x1="98.4718" y1="487.43" x2="241.016" y2="431.464"/>
  <line style="fill: none; fill-opacity:0; stroke-width: 2; stroke: #000000" x1="93.1794" y1="531.592" x2="252.055" y2="433.981"/>
  <line style="fill: none; fill-opacity:0; stroke-width: 2; stroke: #000000" x1="92.8591" y1="579.393" x2="261.062" y2="433.929"/>
  <line style="fill: none; fill-opacity:0; stroke-width: 2; stroke: #000000" x1="81.4377" y1="629.392" x2="265.087" y2="434.005"/>
  <g>
    <rect style="fill: #ffffff" x="249" y="149" width="66.5" height="36"/>
    <rect style="fill: none; fill-opacity:0; stroke-width: 2; stroke: #000000" x="249" y="149" width="66.5" height="36"/>
    <text font-size="12.7998" style="fill: #000000;text-anchor:middle;font-family:monospace;font-style:normal;font-weight:normal" x="282.25" y="171">Group</text>
  </g>
  <g>
    <ellipse style="fill: #ffffff" cx="184.4" cy="113" rx="35.4" ry="18"/>
    <ellipse style="fill: none; fill-opacity:0; stroke-width: 2; stroke: #000000" cx="184.4" cy="113" rx="35.4" ry="18"/>
    <text font-size="12.7998" style="fill: #000000;text-anchor:middle;font-family:monospace;font-style:normal;font-weight:normal" x="184.4" y="117">Uuid</text>
    <line style="fill: none; fill-opacity:0; stroke-width: 2; stroke: #000000" x1="169" y1="121" x2="199.8" y2="121"/>
  </g>
  <g>
    <ellipse style="fill: #ffffff" cx="184.3" cy="162.2" rx="35.4" ry="18"/>
    <ellipse style="fill: none; fill-opacity:0; stroke-width: 2; stroke: #000000" cx="184.3" cy="162.2" rx="35.4" ry="18"/>
    <text font-size="12.7998" style="fill: #000000;text-anchor:middle;font-family:monospace;font-style:normal;font-weight:normal" x="184.3" y="166.2">Name</text>
  </g>
  <g>
    <ellipse style="fill: #ffffff" cx="285.25" cy="93.2" rx="62.35" ry="18"/>
    <ellipse style="fill: none; fill-opacity:0; stroke-width: 2; stroke: #000000" cx="285.25" cy="93.2" rx="62.35" ry="18"/>
    <text font-size="12.7998" style="fill: #000000;text-anchor:middle;font-family:monospace;font-style:normal;font-weight:normal" x="285.25" y="97.2">Description</text>
  </g>
  <g>
    <ellipse style="fill: #ffffff" cx="390.25" cy="165" rx="39.25" ry="18"/>
    <ellipse style="fill: none; fill-opacity:0; stroke-width: 2; stroke: #000000" cx="390.25" cy="165" rx="39.25" ry="18"/>
    <text font-size="12.7998" style="fill: #000000;text-anchor:middle;font-family:monospace;font-style:normal;font-weight:normal" x="390.25" y="169">Color</text>
  </g>
  <g>
    <ellipse style="fill: #ffffff" cx="391.4" cy="110" rx="35.4" ry="18"/>
    <ellipse style="fill: none; fill-opacity:0; stroke-width: 2; stroke: #000000" cx="391.4" cy="110" rx="35.4" ry="18"/>
    <text font-size="12.7998" style="fill: #000000;text-anchor:middle;font-family:monospace;font-style:normal;font-weight:normal" x="391.4" y="114">Used</text>
  </g>
  <g>
    <ellipse style="fill: #ffffff" cx="64.3" cy="695.2" rx="35.4" ry="18"/>
    <ellipse style="fill: none; fill-opacity:0; stroke-width: 2; stroke: #000000" cx="64.3" cy="695.2" rx="35.4" ry="18"/>
    <text font-size="12.7998" style="fill: #000000;text-anchor:middle;font-family:monospace;font-style:normal;font-weight:normal" x="64.3" y="699.2">Used</text>
  </g>
  <line style="fill: none; fill-opacity:0; stroke-width: 2; stroke: #000000" x1="77.9723" y1="677.679" x2="268.163" y2="433.949"/>
  <line style="fill: none; fill-opacity:0; stroke-width: 2; stroke: #000000" x1="365.811" y1="123.363" x2="316.493" y2="149.118"/>
  <line style="fill: none; fill-opacity:0; stroke-width: 2; stroke: #000000" x1="350.04" y1="165.745" x2="316.488" y2="166.366"/>
  <line style="fill: none; fill-opacity:0; stroke-width: 2; stroke: #000000" x1="284.478" y1="112.2" x2="283.022" y2="148"/>
  <line style="fill: none; fill-opacity:0; stroke-width: 2; stroke: #000000" x1="220.505" y1="163.974" x2="247.994" y2="165.321"/>
  <line style="fill: none; fill-opacity:0; stroke-width: 2; stroke: #000000" x1="209.257" y1="126.718" x2="248.017" y2="148.108"/>
  <g>
    <rect style="fill: #ffffff" x="249" y="659" width="66.5" height="36"/>
    <rect style="fill: none; fill-opacity:0; stroke-width: 2; stroke: #000000" x="249" y="659" width="66.5" height="36"/>
    <text font-size="12.7998" style="fill: #000000;text-anchor:middle;font-family:monospace;font-style:normal;font-weight:normal" x="282.25" y="681">Price</text>
  </g>
  <g>
    <ellipse style="fill: #ffffff" cx="182.4" cy="676" rx="35.4" ry="18"/>
    <ellipse style="fill: none; fill-opacity:0; stroke-width: 2; stroke: #000000" cx="182.4" cy="676" rx="35.4" ry="18"/>
    <text font-size="12.7998" style="fill: #000000;text-anchor:middle;font-family:monospace;font-style:normal;font-weight:normal" x="182.4" y="680">Uuid</text>
    <line style="fill: none; fill-opacity:0; stroke-width: 2; stroke: #000000" x1="167" y1="684" x2="197.8" y2="684"/>
  </g>
  <g>
    <ellipse style="fill: #ffffff" cx="160.7" cy="720.2" rx="50.8" ry="18"/>
    <ellipse style="fill: none; fill-opacity:0; stroke-width: 2; stroke: #000000" cx="160.7" cy="720.2" rx="50.8" ry="18"/>
    <text font-size="12.7998" style="fill: #000000;text-anchor:middle;font-family:monospace;font-style:normal;font-weight:normal" x="160.7" y="724.2">Archived</text>
  </g>
  <g>
    <ellipse style="fill: #ffffff" cx="249.15" cy="806.4" rx="62.35" ry="18"/>
    <ellipse style="fill: none; fill-opacity:0; stroke-width: 2; stroke: #000000" cx="249.15" cy="806.4" rx="62.35" ry="18"/>
    <text font-size="12.7998" style="fill: #000000;text-anchor:middle;font-family:monospace;font-style:normal;font-weight:normal" x="249.15" y="810.4">Description</text>
  </g>
  <g>
    <ellipse style="fill: #ffffff" cx="168.25" cy="767.2" rx="62.35" ry="18"/>
    <ellipse style="fill: none; fill-opacity:0; stroke-width: 2; stroke: #000000" cx="168.25" cy="767.2" rx="62.35" ry="18"/>
    <text font-size="12.7998" style="fill: #000000;text-anchor:middle;font-family:monospace;font-style:normal;font-weight:normal" x="168.25" y="771.2">RetailValue</text>
  </g>
  <g>
    <ellipse style="fill: #ffffff" cx="372.45" cy="727.4" rx="54.65" ry="18"/>
    <ellipse style="fill: none; fill-opacity:0; stroke-width: 2; stroke: #000000" cx="372.45" cy="727.4" rx="54.65" ry="18"/>
    <text font-size="12.7998" style="fill: #000000;text-anchor:middle;font-family:monospace;font-style:normal;font-weight:normal" x="372.45" y="731.4">SellValue</text>
  </g>
  <g>
    <ellipse style="fill: #ffffff" cx="310.8" cy="768.6" rx="43.1" ry="18"/>
    <ellipse style="fill: none; fill-opacity:0; stroke-width: 2; stroke: #000000" cx="310.8" cy="768.6" rx="43.1" ry="18"/>
    <text font-size="12.7998" style="fill: #000000;text-anchor:middle;font-family:monospace;font-style:normal;font-weight:normal" x="310.8" y="772.6">Locked</text>
  </g>
  <line style="fill: none; fill-opacity:0; stroke-width: 2; stroke: #000000" x1="218.783" y1="676.364" x2="248.012" y2="676.657"/>
  <line style="fill: none; fill-opacity:0; stroke-width: 2; stroke: #000000" x1="197.512" y1="707.117" x2="247.997" y2="689.174"/>
  <line style="fill: none; fill-opacity:0; stroke-width: 2; stroke: #000000" x1="253.987" y1="787.492" x2="277.393" y2="695.987"/>
  <line style="fill: none; fill-opacity:0; stroke-width: 2; stroke: #000000" x1="190.411" y1="749.665" x2="258.245" y2="695.994"/>
  <line style="fill: none; fill-opacity:0; stroke-width: 2; stroke: #000000" x1="343.866" y1="711.429" x2="316.262" y2="696.005"/>
  <line style="fill: none; fill-opacity:0; stroke-width: 2; stroke: #000000" x1="304.942" y1="749.804" x2="288.168" y2="695.986"/>
  <g>
    <rect style="fill: #ffffff" x="500" y="398" width="143.5" height="36"/>
    <rect style="fill: none; fill-opacity:0; stroke-width: 2; stroke: #000000" x="500" y="398" width="143.5" height="36"/>
    <text font-size="12.7998" style="fill: #000000;text-anchor:middle;font-family:monospace;font-style:normal;font-weight:normal" x="571.75" y="420">TransactionItem</text>
  </g>
  <g>
    <ellipse style="fill: #ffffff" cx="456.65" cy="477" rx="54.65" ry="18"/>
    <ellipse style="fill: none; fill-opacity:0; stroke-width: 2; stroke: #000000" cx="456.65" cy="477" rx="54.65" ry="18"/>
    <text font-size="12.7998" style="fill: #000000;text-anchor:middle;font-family:monospace;font-style:normal;font-weight:normal" x="456.65" y="481">ProductId</text>
  </g>
  <g>
    <ellipse style="fill: #ffffff" cx="571.95" cy="492" rx="46.95" ry="18"/>
    <ellipse style="fill: none; fill-opacity:0; stroke-width: 2; stroke: #000000" cx="571.95" cy="492" rx="46.95" ry="18"/>
    <text font-size="12.7998" style="fill: #000000;text-anchor:middle;font-family:monospace;font-style:normal;font-weight:normal" x="571.95" y="496">PriceId</text>
  </g>
  <g>
    <ellipse style="fill: #ffffff" cx="662.25" cy="468" rx="39.25" ry="18"/>
    <ellipse style="fill: none; fill-opacity:0; stroke-width: 2; stroke: #000000" cx="662.25" cy="468" rx="39.25" ry="18"/>
    <text font-size="12.7998" style="fill: #000000;text-anchor:middle;font-family:monospace;font-style:normal;font-weight:normal" x="662.25" y="472">Count</text>
  </g>
  <line style="fill: none; fill-opacity:0; stroke-width: 2; stroke: #000000" x1="486.387" y1="461.24" x2="535.95" y2="434.973"/>
  <line style="fill: none; fill-opacity:0; stroke-width: 2; stroke: #000000" x1="571.925" y1="482.5" x2="571.8" y2="435.009"/>
  <line style="fill: none; fill-opacity:0; stroke-width: 2; stroke: #000000" x1="636.929" y1="453.451" x2="604.826" y2="435.005"/>
  <g>
    <rect style="fill: #ffffff" x="871" y="398" width="89.6" height="36"/>
    <rect style="fill: none; fill-opacity:0; stroke-width: 2; stroke: #000000" x="871" y="398" width="89.6" height="36"/>
    <text font-size="12.7998" style="fill: #000000;text-anchor:middle;font-family:monospace;font-style:normal;font-weight:normal" x="915.8" y="420">Purchase</text>
  </g>
  <g>
    <ellipse style="fill: #ffffff" cx="1051.4" cy="291" rx="35.4" ry="18"/>
    <ellipse style="fill: none; fill-opacity:0; stroke-width: 2; stroke: #000000" cx="1051.4" cy="291" rx="35.4" ry="18"/>
    <text font-size="12.7998" style="fill: #000000;text-anchor:middle;font-family:monospace;font-style:normal;font-weight:normal" x="1051.4" y="295">Uuid</text>
    <line style="fill: none; fill-opacity:0; stroke-width: 2; stroke: #000000" x1="1036" y1="299" x2="1066.8" y2="299"/>
  </g>
  <g>
    <ellipse style="fill: #ffffff" cx="1056.5" cy="338" rx="58.5" ry="18"/>
    <ellipse style="fill: none; fill-opacity:0; stroke-width: 2; stroke: #000000" cx="1056.5" cy="338" rx="58.5" ry="18"/>
    <text font-size="12.7998" style="fill: #000000;text-anchor:middle;font-family:monospace;font-style:normal;font-weight:normal" x="1056.5" y="342">TotalPrice</text>
  </g>
  <g>
    <ellipse style="fill: #ffffff" cx="1071.5" cy="419" rx="58.5" ry="18"/>
    <ellipse style="fill: none; fill-opacity:0; stroke-width: 2; stroke: #000000" cx="1071.5" cy="419" rx="58.5" ry="18"/>
    <text font-size="12.7998" style="fill: #000000;text-anchor:middle;font-family:monospace;font-style:normal;font-weight:normal" x="1071.5" y="423">DatePosted</text>
  </g>
  <g>
    <ellipse style="fill: #ffffff" cx="1054.4" cy="382" rx="35.4" ry="18"/>
    <ellipse style="fill: none; fill-opacity:0; stroke-width: 2; stroke: #000000" cx="1054.4" cy="382" rx="35.4" ry="18"/>
    <text font-size="12.7998" style="fill: #000000;text-anchor:middle;font-family:monospace;font-style:normal;font-weight:normal" x="1054.4" y="386">Type</text>
  </g>
  <g>
    <ellipse style="fill: #ffffff" cx="1065.15" cy="465.2" rx="39.25" ry="18"/>
    <ellipse style="fill: none; fill-opacity:0; stroke-width: 2; stroke: #000000" cx="1065.15" cy="465.2" rx="39.25" ry="18"/>
    <text font-size="12.7998" style="fill: #000000;text-anchor:middle;font-family:monospace;font-style:normal;font-weight:normal" x="1065.15" y="469.2">Items</text>
  </g>
  <g>
    <ellipse style="fill: #ffffff" cx="1060.9" cy="515.4" rx="43.1" ry="18"/>
    <ellipse style="fill: none; fill-opacity:0; stroke-width: 2; stroke: #000000" cx="1060.9" cy="515.4" rx="43.1" ry="18"/>
    <text font-size="12.7998" style="fill: #000000;text-anchor:middle;font-family:monospace;font-style:normal;font-weight:normal" x="1060.9" y="519.4">Posted</text>
  </g>
  <line style="fill: none; fill-opacity:0; stroke-width: 2; stroke: #000000" x1="1033.57" y1="307.434" x2="936.408" y2="397.003"/>
  <line style="fill: none; fill-opacity:0; stroke-width: 2; stroke: #000000" x1="1027.3" y1="354.187" x2="950.048" y2="397.014"/>
  <line style="fill: none; fill-opacity:0; stroke-width: 2; stroke: #000000" x1="1021.56" y1="390.056" x2="961.583" y2="404.769"/>
  <line style="fill: none; fill-opacity:0; stroke-width: 2; stroke: #000000" x1="1012.11" y1="417.856" x2="961.586" y2="416.882"/>
  <line style="fill: none; fill-opacity:0; stroke-width: 2; stroke: #000000" x1="1032.32" y1="454.386" x2="961.606" y2="431.09"/>
  <line style="fill: none; fill-opacity:0; stroke-width: 2; stroke: #000000" x1="1037.64" y1="499.468" x2="943.52" y2="434.989"/>
  <g>
    <rect style="fill: #ffffff" x="517" y="649" width="89.6" height="36"/>
    <rect style="fill: none; fill-opacity:0; stroke-width: 2; stroke: #000000" x="517" y="649" width="89.6" height="36"/>
    <text font-size="12.7998" style="fill: #000000;text-anchor:middle;font-family:monospace;font-style:normal;font-weight:normal" x="561.8" y="671">Settings</text>
  </g>
  <g>
    <ellipse style="fill: #ffffff" cx="520.45" cy="592" rx="85.45" ry="18"/>
    <ellipse style="fill: none; fill-opacity:0; stroke-width: 2; stroke: #000000" cx="520.45" cy="592" rx="85.45" ry="18"/>
    <text font-size="12.7998" style="fill: #000000;text-anchor:middle;font-family:monospace;font-style:normal;font-weight:normal" x="520.45" y="596">NextProductNumber</text>
  </g>
  <g>
    <ellipse style="fill: #ffffff" cx="650.75" cy="619" rx="77.75" ry="18"/>
    <ellipse style="fill: none; fill-opacity:0; stroke-width: 2; stroke: #000000" cx="650.75" cy="619" rx="77.75" ry="18"/>
    <text font-size="12.7998" style="fill: #000000;text-anchor:middle;font-family:monospace;font-style:normal;font-weight:normal" x="650.75" y="623">NextGroupNumber</text>
  </g>
  <g>
    <ellipse style="fill: #ffffff" cx="446.4" cy="634" rx="35.4" ry="18"/>
    <ellipse style="fill: none; fill-opacity:0; stroke-width: 2; stroke: #000000" cx="446.4" cy="634" rx="35.4" ry="18"/>
    <text font-size="12.7998" style="fill: #000000;text-anchor:middle;font-family:monospace;font-style:normal;font-weight:normal" x="446.4" y="638">Uuid</text>
  </g>
  <line style="fill: none; fill-opacity:0; stroke-width: 2; stroke: #000000" x1="446.4" y1="634" x2="446.4" y2="634"/>
  <line style="fill: none; fill-opacity:0; stroke-width: 2; stroke: #000000" x1="478.215" y1="643.098" x2="516.018" y2="653.908"/>
  <line style="fill: none; fill-opacity:0; stroke-width: 2; stroke: #000000" x1="530.793" y1="610.759" x2="551.331" y2="648.012"/>
  <line style="fill: none; fill-opacity:0; stroke-width: 2; stroke: #000000" x1="619.212" y1="636.019" x2="597.002" y2="648.004"/>
  <g>
    <rect style="fill: #ffffff" x="627" y="738" width="97.3" height="36"/>
    <rect style="fill: none; fill-opacity:0; stroke-width: 2; stroke: #000000" x="627" y="738" width="97.3" height="36"/>
    <text font-size="12.7998" style="fill: #000000;text-anchor:middle;font-family:monospace;font-style:normal;font-weight:normal" x="675.65" y="760">TimeStats</text>
  </g>
  <g>
    <ellipse style="fill: #ffffff" cx="898.4" cy="592" rx="35.4" ry="18"/>
    <ellipse style="fill: none; fill-opacity:0; stroke-width: 2; stroke: #000000" cx="898.4" cy="592" rx="35.4" ry="18"/>
    <text font-size="12.7998" style="fill: #000000;text-anchor:middle;font-family:monospace;font-style:normal;font-weight:normal" x="898.4" y="596">Date</text>
    <line style="fill: none; fill-opacity:0; stroke-width: 2; stroke: #000000" x1="883" y1="600" x2="913.8" y2="600"/>
  </g>
  <g>
    <ellipse style="fill: #ffffff" cx="895.95" cy="642" rx="46.95" ry="18"/>
    <ellipse style="fill: none; fill-opacity:0; stroke-width: 2; stroke: #000000" cx="895.95" cy="642" rx="46.95" ry="18"/>
    <text font-size="12.7998" style="fill: #000000;text-anchor:middle;font-family:monospace;font-style:normal;font-weight:normal" x="895.95" y="646">Revenue</text>
  </g>
  <g>
    <ellipse style="fill: #ffffff" cx="895" cy="692.2" rx="43.1" ry="18"/>
    <ellipse style="fill: none; fill-opacity:0; stroke-width: 2; stroke: #000000" cx="895" cy="692.2" rx="43.1" ry="18"/>
    <text font-size="12.7998" style="fill: #000000;text-anchor:middle;font-family:monospace;font-style:normal;font-weight:normal" x="895" y="696.2">Losses</text>
  </g>
  <g>
    <ellipse style="fill: #ffffff" cx="894.45" cy="738.4" rx="54.65" ry="18"/>
    <ellipse style="fill: none; fill-opacity:0; stroke-width: 2; stroke: #000000" cx="894.45" cy="738.4" rx="54.65" ry="18"/>
    <text font-size="12.7998" style="fill: #000000;text-anchor:middle;font-family:monospace;font-style:normal;font-weight:normal" x="894.45" y="742.4">SoldItems</text>
  </g>
  <g>
    <ellipse style="fill: #ffffff" cx="893.15" cy="782.6" rx="85.45" ry="18"/>
    <ellipse style="fill: none; fill-opacity:0; stroke-width: 2; stroke: #000000" cx="893.15" cy="782.6" rx="85.45" ry="18"/>
    <text font-size="12.7998" style="fill: #000000;text-anchor:middle;font-family:monospace;font-style:normal;font-weight:normal" x="893.15" y="786.6">CanceledItemSells</text>
  </g>
  <g>
    <ellipse style="fill: #ffffff" cx="891.05" cy="830.8" rx="85.45" ry="18"/>
    <ellipse style="fill: none; fill-opacity:0; stroke-width: 2; stroke: #000000" cx="891.05" cy="830.8" rx="85.45" ry="18"/>
    <text font-size="12.7998" style="fill: #000000;text-anchor:middle;font-family:monospace;font-style:normal;font-weight:normal" x="891.05" y="834.8">RefundedItemSells</text>
  </g>
  <g>
    <ellipse style="fill: #ffffff" cx="892.05" cy="879" rx="70.05" ry="18"/>
    <ellipse style="fill: none; fill-opacity:0; stroke-width: 2; stroke: #000000" cx="892.05" cy="879" rx="70.05" ry="18"/>
    <text font-size="12.7998" style="fill: #000000;text-anchor:middle;font-family:monospace;font-style:normal;font-weight:normal" x="892.05" y="883">DisposedItems</text>
  </g>
  <line style="fill: none; fill-opacity:0; stroke-width: 2; stroke: #000000" x1="877.49" y1="607.395" x2="701.454" y2="737.001"/>
  <line style="fill: none; fill-opacity:0; stroke-width: 2; stroke: #000000" x1="867.115" y1="656.921" x2="712.358" y2="737.005"/>
  <line style="fill: none; fill-opacity:0; stroke-width: 2; stroke: #000000" x1="858.678" y1="702.765" x2="725.306" y2="741.557"/>
  <line style="fill: none; fill-opacity:0; stroke-width: 2; stroke: #000000" x1="840.358" y1="742.751" x2="725.289" y2="752.007"/>
  <line style="fill: none; fill-opacity:0; stroke-width: 2; stroke: #000000" x1="818.265" y1="773.442" x2="725.306" y2="762.073"/>
  <line style="fill: none; fill-opacity:0; stroke-width: 2; stroke: #000000" x1="845.798" y1="815.086" x2="725.306" y2="773.244"/>
  <line style="fill: none; fill-opacity:0; stroke-width: 2; stroke: #000000" x1="862.325" y1="862.105" x2="709.066" y2="774.994"/>
  <g>
    <rect style="fill: #ffffff" x="520" y="286" width="120.4" height="36"/>
    <rect style="fill: none; fill-opacity:0; stroke-width: 2; stroke: #000000" x="520" y="286" width="120.4" height="36"/>
    <text font-size="12.7998" style="fill: #000000;text-anchor:middle;font-family:monospace;font-style:normal;font-weight:normal" x="580.2" y="308">ProductStats</text>
  </g>
  <g>
    <ellipse style="fill: #ffffff" cx="650.65" cy="255" rx="54.65" ry="18"/>
    <ellipse style="fill: none; fill-opacity:0; stroke-width: 2; stroke: #000000" cx="650.65" cy="255" rx="54.65" ry="18"/>
    <text font-size="12.7998" style="fill: #000000;text-anchor:middle;font-family:monospace;font-style:normal;font-weight:normal" x="650.65" y="259">ProductId</text>
  </g>
  <g>
    <ellipse style="fill: #ffffff" cx="516.2" cy="254" rx="66.2" ry="18"/>
    <ellipse style="fill: none; fill-opacity:0; stroke-width: 2; stroke: #000000" cx="516.2" cy="254" rx="66.2" ry="18"/>
    <text font-size="12.7998" style="fill: #000000;text-anchor:middle;font-family:monospace;font-style:normal;font-weight:normal" x="516.2" y="258">Transactions</text>
  </g>
  <line style="fill: none; fill-opacity:0; stroke-width: 2; stroke: #000000" x1="627.534" y1="271.078" x2="607.522" y2="284.997"/>
  <line style="fill: none; fill-opacity:0; stroke-width: 2; stroke: #000000" x1="538.731" y1="271.603" x2="555.872" y2="284.994"/>
  <g>
    <polygon style="fill: #ffffff" points="232,286.48 282.8,256 333.6,286.48 282.8,316.96 "/>
    <polygon style="fill: none; fill-opacity:0; stroke-width: 2; stroke: #000000" points="232,286.48 282.8,256 333.6,286.48 282.8,316.96 "/>
    <text font-size="12.7998" style="fill: #000000;text-anchor:start;font-family:monospace;font-style:normal;font-weight:normal" x="286.8" y="250">n</text>
    <text font-size="12.7998" style="fill: #000000;text-anchor:start;font-family:monospace;font-style:normal;font-weight:normal" x="286.8" y="338.96">1</text>
    <text font-size="12.7998" style="fill: #000000;text-anchor:middle;font-family:monospace;font-style:normal;font-weight:normal" x="282.8" y="290.48">contains</text>
  </g>
  <line style="fill: none; fill-opacity:0; stroke-width: 2; stroke: #000000" x1="282.921" y1="396.019" x2="282.8" y2="316.96"/>
  <line style="fill: none; fill-opacity:0; stroke-width: 2; stroke: #000000" x1="282.8" y1="256" x2="282.367" y2="186.002"/>
  <g>
    <polygon style="fill: #ffffff" points="251,564.93 282.55,546 314.1,564.93 282.55,583.86 "/>
    <polygon style="fill: none; fill-opacity:0; stroke-width: 2; stroke: #000000" points="251,564.93 282.55,546 314.1,564.93 282.55,583.86 "/>
    <text font-size="12.7998" style="fill: #000000;text-anchor:start;font-family:monospace;font-style:normal;font-weight:normal" x="286.55" y="540">1</text>
    <text font-size="12.7998" style="fill: #000000;text-anchor:start;font-family:monospace;font-style:normal;font-weight:normal" x="286.55" y="605.86">n</text>
    <text font-size="12.7998" style="fill: #000000;text-anchor:middle;font-family:monospace;font-style:normal;font-weight:normal" x="282.55" y="568.93">has</text>
  </g>
  <line style="fill: none; fill-opacity:0; stroke-width: 2; stroke: #000000" x1="282.899" y1="434.007" x2="282.603" y2="544.999"/>
  <line style="fill: none; fill-opacity:0; stroke-width: 2; stroke: #000000" x1="282.55" y1="583.86" x2="282.311" y2="658.035"/>
  <g>
    <polygon style="fill: #ffffff" points="378,304.93 409.55,286 441.1,304.93 409.55,323.86 "/>
    <polygon style="fill: none; fill-opacity:0; stroke-width: 2; stroke: #000000" points="378,304.93 409.55,286 441.1,304.93 409.55,323.86 "/>
    <text font-size="12.7998" style="fill: #000000;text-anchor:end;font-family:monospace;font-style:normal;font-weight:normal" x="372" y="298.93">1</text>
    <text font-size="12.7998" style="fill: #000000;text-anchor:start;font-family:monospace;font-style:normal;font-weight:normal" x="447.1" y="298.93">1</text>
    <text font-size="12.7998" style="fill: #000000;text-anchor:middle;font-family:monospace;font-style:normal;font-weight:normal" x="409.55" y="308.93">has</text>
  </g>
  <line style="fill: none; fill-opacity:0; stroke-width: 2; stroke: #000000" x1="299.362" y1="395.994" x2="378" y2="304.93"/>
  <g>
    <polygon style="fill: #ffffff" points="371.602,416.503 403.152,397.573 434.702,416.503 403.152,435.433 "/>
    <polygon style="fill: none; fill-opacity:0; stroke-width: 2; stroke: #000000" points="371.602,416.503 403.152,397.573 434.702,416.503 403.152,435.433 "/>
    <text font-size="12.7998" style="fill: #000000;text-anchor:end;font-family:monospace;font-style:normal;font-weight:normal" x="365.602" y="410.503">1</text>
    <text font-size="12.7998" style="fill: #000000;text-anchor:start;font-family:monospace;font-style:normal;font-weight:normal" x="440.702" y="410.503">n</text>
    <text font-size="12.7998" style="fill: #000000;text-anchor:middle;font-family:monospace;font-style:normal;font-weight:normal" x="403.152" y="420.503">has</text>
  </g>
  <line style="fill: none; fill-opacity:0; stroke-width: 2; stroke: #000000" x1="518.996" y1="304.409" x2="441.1" y2="304.93"/>
  <line style="fill: none; fill-opacity:0; stroke-width: 2; stroke: #000000" x1="324.906" y1="415.711" x2="371.602" y2="416.503"/>
  <line style="fill: none; fill-opacity:0; stroke-width: 2; stroke: #000000" x1="499.002" y1="416.267" x2="434.702" y2="416.503"/>
  <g>
    <polygon style="fill: #ffffff" points="705.602,416.68 756.402,386.2 807.202,416.68 756.402,447.16 "/>
    <polygon style="fill: none; fill-opacity:0; stroke-width: 2; stroke: #000000" points="705.602,416.68 756.402,386.2 807.202,416.68 756.402,447.16 "/>
    <text font-size="12.7998" style="fill: #000000;text-anchor:end;font-family:monospace;font-style:normal;font-weight:normal" x="699.602" y="410.68">n</text>
    <text font-size="12.7998" style="fill: #000000;text-anchor:start;font-family:monospace;font-style:normal;font-weight:normal" x="813.202" y="410.68">m</text>
    <text font-size="12.7998" style="fill: #000000;text-anchor:middle;font-family:monospace;font-style:normal;font-weight:normal" x="756.402" y="420.68">includes</text>
  </g>
  <line style="fill: none; fill-opacity:0; stroke-width: 2; stroke: #000000" x1="807.202" y1="416.68" x2="870.834" y2="416.282"/>
  <line style="fill: none; fill-opacity:0; stroke-width: 2; stroke: #000000" x1="644.501" y1="416.37" x2="705.602" y2="416.68"/>
</svg>
